<?xml version="1.0" encoding="us-ascii" standalone="no"?><svg xmlns="http://www.w3.org/2000/svg" xmlns:xlink="http://www.w3.org/1999/xlink" contentStyleType="text/css" height="323px" preserveAspectRatio="none" style="width:782px;height:323px;background:#FFFFFF;" version="1.1" viewBox="0 0 782 323" width="782px" zoomAndPan="magnify"><defs/><g><ellipse cx="567" cy="20" fill="#222222" rx="10" ry="10" style="stroke:#222222;stroke-width:1.0;"/><polygon fill="#F1F1F1" points="520,50,614,50,626,62,614,74,520,74,508,62,520,50" style="stroke:#181818;stroke-width:0.5;"/><text fill="#000000" font-family="sans-serif" font-size="11" lengthAdjust="spacing" textLength="94" x="520" y="66.5547">Zugriff auf Server?</text><text fill="#000000" font-family="sans-serif" font-size="11" lengthAdjust="spacing" textLength="11" x="497" y="59.2393">Ja</text><text fill="#000000" font-family="sans-serif" font-size="11" lengthAdjust="spacing" textLength="21" x="626" y="59.2393">Nein</text><polygon fill="#F1F1F1" points="335.5,84,439.5,84,451.5,96,439.5,108,335.5,108,323.5,96,335.5,84" style="stroke:#181818;stroke-width:0.5;"/><text fill="#000000" font-family="sans-serif" font-size="11" lengthAdjust="spacing" textLength="104" x="335.5" y="100.5547">Bidirektional ben&#246;tigt?</text><text fill="#000000" font-family="sans-serif" font-size="11" lengthAdjust="spacing" textLength="11" x="312.5" y="93.2393">Ja</text><text fill="#000000" font-family="sans-serif" font-size="11" lengthAdjust="spacing" textLength="21" x="451.5" y="93.2393">Nein</text><polygon fill="#F1F1F1" points="114,118,217,118,229,130,217,142,114,142,102,130,114,118" style="stroke:#181818;stroke-width:0.5;"/><text fill="#000000" font-family="sans-serif" font-size="11" lengthAdjust="spacing" textLength="103" x="114" y="134.5547">Media Streams n&#246;tig?</text><text fill="#000000" font-family="sans-serif" font-size="11" lengthAdjust="spacing" textLength="11" x="91" y="127.2393">Ja</text><text fill="#000000" font-family="sans-serif" font-size="11" lengthAdjust="spacing" textLength="21" x="229" y="127.2393">Nein</text><rect fill="#F1F1F1" height="35.9609" rx="12.5" ry="12.5" style="stroke:#181818;stroke-width:0.5;" width="70" x="11" y="152"/><text fill="#000000" font-family="sans-serif" font-size="12" lengthAdjust="spacing" textLength="50" x="21" y="174.9492">WebRTC</text><ellipse cx="46" cy="233.9609" fill="none" rx="11" ry="11" style="stroke:#222222;stroke-width:1.0;"/><ellipse cx="46" cy="233.9609" fill="#222222" rx="6" ry="6" style="stroke:#222222;stroke-width:1.0;"/><polygon fill="#F1F1F1" points="228,152,398,152,410,164,398,176,228,176,216,164,228,152" style="stroke:#181818;stroke-width:0.5;"/><text fill="#000000" font-family="sans-serif" font-size="11" lengthAdjust="spacing" textLength="170" x="228" y="168.5547">Viel Client-&gt;Server Kommunikation?</text><text fill="#000000" font-family="sans-serif" font-size="11" lengthAdjust="spacing" textLength="11" x="205" y="161.2393">Ja</text><text fill="#000000" font-family="sans-serif" font-size="11" lengthAdjust="spacing" textLength="21" x="410" y="161.2393">Nein</text><polygon fill="#F1F1F1" points="164,186,242,186,254,198,242,210,164,210,152,198,164,186" style="stroke:#181818;stroke-width:0.5;"/><text fill="#000000" font-family="sans-serif" font-size="11" lengthAdjust="spacing" textLength="78" x="164" y="202.5547">Neuestes n&#246;tig?</text><text fill="#000000" font-family="sans-serif" font-size="11" lengthAdjust="spacing" textLength="11" x="141" y="195.2393">Ja</text><text fill="#000000" font-family="sans-serif" font-size="11" lengthAdjust="spacing" textLength="21" x="254" y="195.2393">Nein</text><rect fill="#F1F1F1" height="35.9609" rx="12.5" ry="12.5" style="stroke:#181818;stroke-width:0.5;" width="98" x="93" y="220"/><text fill="#000000" font-family="sans-serif" font-size="12" lengthAdjust="spacing" textLength="78" x="103" y="242.9492">WebTransport</text><ellipse cx="142" cy="301.9609" fill="none" rx="11" ry="11" style="stroke:#222222;stroke-width:1.0;"/><ellipse cx="142" cy="301.9609" fill="#222222" rx="6" ry="6" style="stroke:#222222;stroke-width:1.0;"/><rect fill="#F1F1F1" height="35.9609" rx="12.5" ry="12.5" style="stroke:#181818;stroke-width:0.5;" width="89" x="219.5" y="220"/><text fill="#000000" font-family="sans-serif" font-size="12" lengthAdjust="spacing" textLength="69" x="229.5" y="242.9492">WebSockets</text><ellipse cx="264" cy="301.9609" fill="none" rx="11" ry="11" style="stroke:#222222;stroke-width:1.0;"/><ellipse cx="264" cy="301.9609" fill="#222222" rx="6" ry="6" style="stroke:#222222;stroke-width:1.0;"/><rect fill="#F1F1F1" height="35.9609" rx="12.5" ry="12.5" style="stroke:#181818;stroke-width:0.5;" width="169" x="338.5" y="186"/><text fill="#000000" font-family="sans-serif" font-size="12" lengthAdjust="spacing" textLength="149" x="348.5" y="208.9492">Server-Sent Events + POST</text><ellipse cx="423" cy="267.9609" fill="none" rx="11" ry="11" style="stroke:#222222;stroke-width:1.0;"/><ellipse cx="423" cy="267.9609" fill="#222222" rx="6" ry="6" style="stroke:#222222;stroke-width:1.0;"/><rect fill="#F1F1F1" height="35.9609" rx="12.5" ry="12.5" style="stroke:#181818;stroke-width:0.5;" width="124" x="547.5" y="118"/><text fill="#000000" font-family="sans-serif" font-size="12" lengthAdjust="spacing" textLength="104" x="557.5" y="140.9492">Server-Sent Events</text><ellipse cx="609.5" cy="199.9609" fill="none" rx="11" ry="11" style="stroke:#222222;stroke-width:1.0;"/><ellipse cx="609.5" cy="199.9609" fill="#222222" rx="6" ry="6" style="stroke:#222222;stroke-width:1.0;"/><rect fill="#F1F1F1" height="35.9609" rx="12.5" ry="12.5" style="stroke:#181818;stroke-width:0.5;" width="90" x="681.5" y="84"/><text fill="#000000" font-family="sans-serif" font-size="12" lengthAdjust="spacing" textLength="70" x="691.5" y="106.9492">Short Polling</text><ellipse cx="726.5" cy="165.9609" fill="none" rx="11" ry="11" style="stroke:#222222;stroke-width:1.0;"/><ellipse cx="726.5" cy="165.9609" fill="#222222" rx="6" ry="6" style="stroke:#222222;stroke-width:1.0;"/><line style="stroke:#181818;stroke-width:1.0;" x1="46" x2="46" y1="187.9609" y2="222.9609"/><polygon fill="#181818" points="42,212.9609,46,222.9609,50,212.9609,46,216.9609" style="stroke:#181818;stroke-width:1.0;"/><line style="stroke:#181818;stroke-width:1.0;" x1="142" x2="142" y1="255.9609" y2="290.9609"/><polygon fill="#181818" points="138,280.9609,142,290.9609,146,280.9609,142,284.9609" style="stroke:#181818;stroke-width:1.0;"/><line style="stroke:#181818;stroke-width:1.0;" x1="264" x2="264" y1="255.9609" y2="290.9609"/><polygon fill="#181818" points="260,280.9609,264,290.9609,268,280.9609,264,284.9609" style="stroke:#181818;stroke-width:1.0;"/><line style="stroke:#181818;stroke-width:1.0;" x1="152" x2="142" y1="198" y2="198"/><line style="stroke:#181818;stroke-width:1.0;" x1="142" x2="142" y1="198" y2="220"/><polygon fill="#181818" points="138,210,142,220,146,210,142,214" style="stroke:#181818;stroke-width:1.0;"/><line style="stroke:#181818;stroke-width:1.0;" x1="254" x2="264" y1="198" y2="198"/><line style="stroke:#181818;stroke-width:1.0;" x1="264" x2="264" y1="198" y2="220"/><polygon fill="#181818" points="260,210,264,220,268,210,264,214" style="stroke:#181818;stroke-width:1.0;"/><line style="stroke:#181818;stroke-width:1.0;" x1="423" x2="423" y1="221.9609" y2="256.9609"/><polygon fill="#181818" points="419,246.9609,423,256.9609,427,246.9609,423,250.9609" style="stroke:#181818;stroke-width:1.0;"/><line style="stroke:#181818;stroke-width:1.0;" x1="216" x2="203" y1="164" y2="164"/><line style="stroke:#181818;stroke-width:1.0;" x1="203" x2="203" y1="164" y2="186"/><polygon fill="#181818" points="199,176,203,186,207,176,203,180" style="stroke:#181818;stroke-width:1.0;"/><line style="stroke:#181818;stroke-width:1.0;" x1="410" x2="423" y1="164" y2="164"/><line style="stroke:#181818;stroke-width:1.0;" x1="423" x2="423" y1="164" y2="186"/><polygon fill="#181818" points="419,176,423,186,427,176,423,180" style="stroke:#181818;stroke-width:1.0;"/><line style="stroke:#181818;stroke-width:1.0;" x1="102" x2="46" y1="130" y2="130"/><line style="stroke:#181818;stroke-width:1.0;" x1="46" x2="46" y1="130" y2="152"/><polygon fill="#181818" points="42,142,46,152,50,142,46,146" style="stroke:#181818;stroke-width:1.0;"/><line style="stroke:#181818;stroke-width:1.0;" x1="229" x2="313" y1="130" y2="130"/><line style="stroke:#181818;stroke-width:1.0;" x1="313" x2="313" y1="130" y2="152"/><polygon fill="#181818" points="309,142,313,152,317,142,313,146" style="stroke:#181818;stroke-width:1.0;"/><line style="stroke:#181818;stroke-width:1.0;" x1="609.5" x2="609.5" y1="153.9609" y2="188.9609"/><polygon fill="#181818" points="605.5,178.9609,609.5,188.9609,613.5,178.9609,609.5,182.9609" style="stroke:#181818;stroke-width:1.0;"/><line style="stroke:#181818;stroke-width:1.0;" x1="323.5" x2="165.5" y1="96" y2="96"/><line style="stroke:#181818;stroke-width:1.0;" x1="165.5" x2="165.5" y1="96" y2="118"/><polygon fill="#181818" points="161.5,108,165.5,118,169.5,108,165.5,112" style="stroke:#181818;stroke-width:1.0;"/><line style="stroke:#181818;stroke-width:1.0;" x1="451.5" x2="609.5" y1="96" y2="96"/><line style="stroke:#181818;stroke-width:1.0;" x1="609.5" x2="609.5" y1="96" y2="118"/><polygon fill="#181818" points="605.5,108,609.5,118,613.5,108,609.5,112" style="stroke:#181818;stroke-width:1.0;"/><line style="stroke:#181818;stroke-width:1.0;" x1="726.5" x2="726.5" y1="119.9609" y2="154.9609"/><polygon fill="#181818" points="722.5,144.9609,726.5,154.9609,730.5,144.9609,726.5,148.9609" style="stroke:#181818;stroke-width:1.0;"/><line style="stroke:#181818;stroke-width:1.0;" x1="508" x2="387.5" y1="62" y2="62"/><line style="stroke:#181818;stroke-width:1.0;" x1="387.5" x2="387.5" y1="62" y2="84"/><polygon fill="#181818" points="383.5,74,387.5,84,391.5,74,387.5,78" style="stroke:#181818;stroke-width:1.0;"/><line style="stroke:#181818;stroke-width:1.0;" x1="626" x2="726.5" y1="62" y2="62"/><line style="stroke:#181818;stroke-width:1.0;" x1="726.5" x2="726.5" y1="62" y2="84"/><polygon fill="#181818" points="722.5,74,726.5,84,730.5,74,726.5,78" style="stroke:#181818;stroke-width:1.0;"/><line style="stroke:#181818;stroke-width:1.0;" x1="567" x2="567" y1="30" y2="50"/><polygon fill="#181818" points="563,40,567,50,571,40,567,44" style="stroke:#181818;stroke-width:1.0;"/><!--SRC=[bP1DJeH048NtdA9sCZ78daaqSU96upYnYIRk6YYWGjDDkWiIB-O5l9WWcHy4CrgBJhhowdslwg9aRbmKXesIcjjQNQMc3cNAr16_1nd9miewI92bvpcMbZsFSl3Vsi9IdeDiSn1eExGtA-0IDVZtSkL1NuFibZAoM34PBHKag3y_c0gUQVVwH-o98DYYh1sCwaNnKD4h9i_nPZrfEZRDeO7A8VXR93sT750lX0esYb1pS3sk00-chbjDbHm2_yhTEsonHSTuDkTftjXAxHfZURqecQG_jyMfhp1fXUp-uwepohs_SgBnGe7epmLtNVywk8JTauZdo1bkYZh-be0Be2FXu3nw_9oFHDbV5dP6ATB5EFOzCig_0000]--></g></svg>