<?xml version="1.0" encoding="us-ascii" standalone="no"?><svg xmlns="http://www.w3.org/2000/svg" xmlns:xlink="http://www.w3.org/1999/xlink" contentStyleType="text/css" height="323px" preserveAspectRatio="none" style="width:1115px;height:323px;background:#FFFFFF;" version="1.1" viewBox="0 0 1115 323" width="1115px" zoomAndPan="magnify"><defs/><g><ellipse cx="814.375" cy="20" fill="#222222" rx="10" ry="10" style="stroke:#222222;stroke-width:1.0;"/><polygon fill="#F1F1F1" points="719.375,50,909.375,50,921.375,62,909.375,74,719.375,74,707.375,62,719.375,50" style="stroke:#181818;stroke-width:0.5;"/><text fill="#000000" font-family="sans-serif" font-size="11" lengthAdjust="spacing" textLength="190" x="719.375" y="66.5547">Do you have authority over the server?</text><text fill="#000000" font-family="sans-serif" font-size="11" lengthAdjust="spacing" textLength="18" x="689.375" y="59.2393">yes</text><text fill="#000000" font-family="sans-serif" font-size="11" lengthAdjust="spacing" textLength="12" x="921.375" y="59.2393">no</text><polygon fill="#F1F1F1" points="461.75,84,662.75,84,674.75,96,662.75,108,461.75,108,449.75,96,461.75,84" style="stroke:#181818;stroke-width:0.5;"/><text fill="#000000" font-family="sans-serif" font-size="11" lengthAdjust="spacing" textLength="201" x="461.75" y="100.5547">Do you need bidirectional communication?</text><text fill="#000000" font-family="sans-serif" font-size="11" lengthAdjust="spacing" textLength="18" x="431.75" y="93.2393">yes</text><text fill="#000000" font-family="sans-serif" font-size="11" lengthAdjust="spacing" textLength="12" x="674.75" y="93.2393">no</text><polygon fill="#F1F1F1" points="147,118,295,118,307,130,295,142,147,142,135,130,147,118" style="stroke:#181818;stroke-width:0.5;"/><text fill="#000000" font-family="sans-serif" font-size="11" lengthAdjust="spacing" textLength="148" x="147" y="134.5547">Do you need media streaming?</text><text fill="#000000" font-family="sans-serif" font-size="11" lengthAdjust="spacing" textLength="18" x="117" y="127.2393">yes</text><text fill="#000000" font-family="sans-serif" font-size="11" lengthAdjust="spacing" textLength="12" x="307" y="127.2393">no</text><rect fill="#F1F1F1" height="35.9609" rx="12.5" ry="12.5" style="stroke:#181818;stroke-width:0.5;" width="96" x="11" y="152"/><text fill="#000000" font-family="sans-serif" font-size="12" lengthAdjust="spacing" textLength="76" x="21" y="174.9492">Use WebRTC</text><ellipse cx="59" cy="233.9609" fill="none" rx="11" ry="11" style="stroke:#222222;stroke-width:1.0;"/><ellipse cx="59" cy="233.9609" fill="#222222" rx="6" ry="6" style="stroke:#222222;stroke-width:1.0;"/><polygon fill="#F1F1F1" points="274.5,152,523.5,152,535.5,164,523.5,176,274.5,176,262.5,164,274.5,152" style="stroke:#181818;stroke-width:0.5;"/><text fill="#000000" font-family="sans-serif" font-size="11" lengthAdjust="spacing" textLength="249" x="274.5" y="168.5547">Do you have a lot of Client-&gt;Server communication?</text><text fill="#000000" font-family="sans-serif" font-size="11" lengthAdjust="spacing" textLength="12" x="250.5" y="161.2393">no</text><text fill="#000000" font-family="sans-serif" font-size="11" lengthAdjust="spacing" textLength="18" x="535.5" y="161.2393">yes</text><rect fill="#F1F1F1" height="35.9609" rx="12.5" ry="12.5" style="stroke:#181818;stroke-width:0.5;" width="210" x="121" y="186"/><text fill="#000000" font-family="sans-serif" font-size="12" lengthAdjust="spacing" textLength="190" x="131" y="208.9492">Use Server-Sent Events with POST</text><ellipse cx="226" cy="267.9609" fill="none" rx="11" ry="11" style="stroke:#222222;stroke-width:1.0;"/><ellipse cx="226" cy="267.9609" fill="#222222" rx="6" ry="6" style="stroke:#222222;stroke-width:1.0;"/><polygon fill="#F1F1F1" points="445,186,699,186,711,198,699,210,445,210,433,198,445,186" style="stroke:#181818;stroke-width:0.5;"/><text fill="#000000" font-family="sans-serif" font-size="11" lengthAdjust="spacing" textLength="254" x="445" y="202.5547">Do you need the cutting edge with modern features?</text><text fill="#000000" font-family="sans-serif" font-size="11" lengthAdjust="spacing" textLength="18" x="415" y="195.2393">yes</text><text fill="#000000" font-family="sans-serif" font-size="11" lengthAdjust="spacing" textLength="12" x="711" y="195.2393">no</text><rect fill="#F1F1F1" height="35.9609" rx="12.5" ry="12.5" style="stroke:#181818;stroke-width:0.5;" width="124" x="361" y="220"/><text fill="#000000" font-family="sans-serif" font-size="12" lengthAdjust="spacing" textLength="104" x="371" y="242.9492">Use WebTransport</text><ellipse cx="423" cy="301.9609" fill="none" rx="11" ry="11" style="stroke:#222222;stroke-width:1.0;"/><ellipse cx="423" cy="301.9609" fill="#222222" rx="6" ry="6" style="stroke:#222222;stroke-width:1.0;"/><rect fill="#F1F1F1" height="35.9609" rx="12.5" ry="12.5" style="stroke:#181818;stroke-width:0.5;" width="115" x="663.5" y="220"/><text fill="#000000" font-family="sans-serif" font-size="12" lengthAdjust="spacing" textLength="95" x="673.5" y="242.9492">Use WebSockets</text><ellipse cx="721" cy="301.9609" fill="none" rx="11" ry="11" style="stroke:#222222;stroke-width:1.0;"/><ellipse cx="721" cy="301.9609" fill="#222222" rx="6" ry="6" style="stroke:#222222;stroke-width:1.0;"/><rect fill="#F1F1F1" height="35.9609" rx="12.5" ry="12.5" style="stroke:#181818;stroke-width:0.5;" width="150" x="828.5" y="118"/><text fill="#000000" font-family="sans-serif" font-size="12" lengthAdjust="spacing" textLength="130" x="838.5" y="140.9492">Use Server-Sent Events</text><ellipse cx="903.5" cy="199.9609" fill="none" rx="11" ry="11" style="stroke:#222222;stroke-width:1.0;"/><ellipse cx="903.5" cy="199.9609" fill="#222222" rx="6" ry="6" style="stroke:#222222;stroke-width:1.0;"/><rect fill="#F1F1F1" height="35.9609" rx="12.5" ry="12.5" style="stroke:#181818;stroke-width:0.5;" width="116" x="988.5" y="84"/><text fill="#000000" font-family="sans-serif" font-size="12" lengthAdjust="spacing" textLength="96" x="998.5" y="106.9492">Use Short Polling</text><ellipse cx="1046.5" cy="165.9609" fill="none" rx="11" ry="11" style="stroke:#222222;stroke-width:1.0;"/><ellipse cx="1046.5" cy="165.9609" fill="#222222" rx="6" ry="6" style="stroke:#222222;stroke-width:1.0;"/><line style="stroke:#181818;stroke-width:1.0;" x1="59" x2="59" y1="187.9609" y2="222.9609"/><polygon fill="#181818" points="55,212.9609,59,222.9609,63,212.9609,59,216.9609" style="stroke:#181818;stroke-width:1.0;"/><line style="stroke:#181818;stroke-width:1.0;" x1="226" x2="226" y1="221.9609" y2="256.9609"/><polygon fill="#181818" points="222,246.9609,226,256.9609,230,246.9609,226,250.9609" style="stroke:#181818;stroke-width:1.0;"/><line style="stroke:#181818;stroke-width:1.0;" x1="423" x2="423" y1="255.9609" y2="290.9609"/><polygon fill="#181818" points="419,280.9609,423,290.9609,427,280.9609,423,284.9609" style="stroke:#181818;stroke-width:1.0;"/><line style="stroke:#181818;stroke-width:1.0;" x1="721" x2="721" y1="255.9609" y2="290.9609"/><polygon fill="#181818" points="717,280.9609,721,290.9609,725,280.9609,721,284.9609" style="stroke:#181818;stroke-width:1.0;"/><line style="stroke:#181818;stroke-width:1.0;" x1="433" x2="423" y1="198" y2="198"/><line style="stroke:#181818;stroke-width:1.0;" x1="423" x2="423" y1="198" y2="220"/><polygon fill="#181818" points="419,210,423,220,427,210,423,214" style="stroke:#181818;stroke-width:1.0;"/><line style="stroke:#181818;stroke-width:1.0;" x1="711" x2="721" y1="198" y2="198"/><line style="stroke:#181818;stroke-width:1.0;" x1="721" x2="721" y1="198" y2="220"/><polygon fill="#181818" points="717,210,721,220,725,210,721,214" style="stroke:#181818;stroke-width:1.0;"/><line style="stroke:#181818;stroke-width:1.0;" x1="262.5" x2="226" y1="164" y2="164"/><line style="stroke:#181818;stroke-width:1.0;" x1="226" x2="226" y1="164" y2="186"/><polygon fill="#181818" points="222,176,226,186,230,176,226,180" style="stroke:#181818;stroke-width:1.0;"/><line style="stroke:#181818;stroke-width:1.0;" x1="535.5" x2="572" y1="164" y2="164"/><line style="stroke:#181818;stroke-width:1.0;" x1="572" x2="572" y1="164" y2="186"/><polygon fill="#181818" points="568,176,572,186,576,176,572,180" style="stroke:#181818;stroke-width:1.0;"/><line style="stroke:#181818;stroke-width:1.0;" x1="135" x2="59" y1="130" y2="130"/><line style="stroke:#181818;stroke-width:1.0;" x1="59" x2="59" y1="130" y2="152"/><polygon fill="#181818" points="55,142,59,152,63,142,59,146" style="stroke:#181818;stroke-width:1.0;"/><line style="stroke:#181818;stroke-width:1.0;" x1="307" x2="399" y1="130" y2="130"/><line style="stroke:#181818;stroke-width:1.0;" x1="399" x2="399" y1="130" y2="152"/><polygon fill="#181818" points="395,142,399,152,403,142,399,146" style="stroke:#181818;stroke-width:1.0;"/><line style="stroke:#181818;stroke-width:1.0;" x1="903.5" x2="903.5" y1="153.9609" y2="188.9609"/><polygon fill="#181818" points="899.5,178.9609,903.5,188.9609,907.5,178.9609,903.5,182.9609" style="stroke:#181818;stroke-width:1.0;"/><line style="stroke:#181818;stroke-width:1.0;" x1="449.75" x2="221" y1="96" y2="96"/><line style="stroke:#181818;stroke-width:1.0;" x1="221" x2="221" y1="96" y2="118"/><polygon fill="#181818" points="217,108,221,118,225,108,221,112" style="stroke:#181818;stroke-width:1.0;"/><line style="stroke:#181818;stroke-width:1.0;" x1="674.75" x2="903.5" y1="96" y2="96"/><line style="stroke:#181818;stroke-width:1.0;" x1="903.5" x2="903.5" y1="96" y2="118"/><polygon fill="#181818" points="899.5,108,903.5,118,907.5,108,903.5,112" style="stroke:#181818;stroke-width:1.0;"/><line style="stroke:#181818;stroke-width:1.0;" x1="1046.5" x2="1046.5" y1="119.9609" y2="154.9609"/><polygon fill="#181818" points="1042.5,144.9609,1046.5,154.9609,1050.5,144.9609,1046.5,148.9609" style="stroke:#181818;stroke-width:1.0;"/><line style="stroke:#181818;stroke-width:1.0;" x1="707.375" x2="562.25" y1="62" y2="62"/><line style="stroke:#181818;stroke-width:1.0;" x1="562.25" x2="562.25" y1="62" y2="84"/><polygon fill="#181818" points="558.25,74,562.25,84,566.25,74,562.25,78" style="stroke:#181818;stroke-width:1.0;"/><line style="stroke:#181818;stroke-width:1.0;" x1="921.375" x2="1046.5" y1="62" y2="62"/><line style="stroke:#181818;stroke-width:1.0;" x1="1046.5" x2="1046.5" y1="62" y2="84"/><polygon fill="#181818" points="1042.5,74,1046.5,84,1050.5,74,1046.5,78" style="stroke:#181818;stroke-width:1.0;"/><line style="stroke:#181818;stroke-width:1.0;" x1="814.375" x2="814.375" y1="30" y2="50"/><polygon fill="#181818" points="810.375,40,814.375,50,818.375,40,814.375,44" style="stroke:#181818;stroke-width:1.0;"/><!--SRC=[bL8xRuCm4Dxv5RSr6IXx8hL3shbHITNvW2DOiNt8FgZuzpL12kKrr0FocViUzzbFbKZj3qbIQxJI6FsSiqam5zKgwU92uTMXYJCIZ28lw2IAL0cxDuQE6wYm9S16AdQX7RWb1r8HU79X-xhl2mkxZlm-Wh3-G2rH0PagbAEWnXOr16dJM9LZNo_1QmI6WaNmuWYDijTrKByENvxWcxBFo-au-U65wyS1wT2ripp5BWO6pG9SmaahiXA_fFTnD_pFsHvk1bIS1WfuRyFNmu-I2iuVwUMuW4nyZbuNWwwbr5z9teY4X82AAmqwXWjo5af2QHpvxUpc6LuSMb-pa-DgsyBfTh9pvfJp6ud_3wyjL1bjdupLqi76BOpg3yM1PSemeCFB5pYprY7R0NW73O1V]--></g></svg>