<?xml version="1.0" encoding="us-ascii" standalone="no"?><svg xmlns="http://www.w3.org/2000/svg" xmlns:xlink="http://www.w3.org/1999/xlink" contentStyleType="text/css" height="460px" preserveAspectRatio="none" style="width:257px;height:460px;background:#FFFFFF;" version="1.1" viewBox="0 0 257 460" width="257px" zoomAndPan="magnify"><defs/><g><line style="stroke:#181818;stroke-width:0.5;stroke-dasharray:5.0,5.0;" x1="30" x2="30" y1="38.6211" y2="421.5313"/><rect fill="#FFFFFF" height="369.9102" style="stroke:#181818;stroke-width:1.0;" width="10" x="25" y="46.6211"/><line style="stroke:#181818;stroke-width:0.5;stroke-dasharray:5.0,5.0;" x1="144" x2="144" y1="38.6211" y2="421.5313"/><rect fill="#FFFFFF" height="75.582" style="stroke:#181818;stroke-width:1.0;" width="10" x="139" y="69.9121"/><rect fill="#FFFFFF" height="75.582" style="stroke:#181818;stroke-width:1.0;" width="10" x="139" y="176.7852"/><rect fill="#FFFFFF" height="119.873" style="stroke:#181818;stroke-width:1.0;" width="10" x="139" y="283.6582"/><rect fill="#E2E2F0" height="32.6211" rx="2.5" ry="2.5" style="stroke:#181818;stroke-width:0.5;" width="50" x="5" y="5"/><text fill="#000000" font-family="sans-serif" font-size="14" lengthAdjust="spacing" textLength="36" x="12" y="27.1074">Client</text><rect fill="#E2E2F0" height="32.6211" rx="2.5" ry="2.5" style="stroke:#181818;stroke-width:0.5;" width="56" x="116" y="5"/><text fill="#000000" font-family="sans-serif" font-size="14" lengthAdjust="spacing" textLength="42" x="123" y="27.1074">Server</text><rect fill="#E2E2F0" height="32.6211" rx="2.5" ry="2.5" style="stroke:#181818;stroke-width:0.5;" width="50" x="5" y="421.5313"/><text fill="#000000" font-family="sans-serif" font-size="14" lengthAdjust="spacing" textLength="36" x="12" y="443.6387">Client</text><rect fill="#E2E2F0" height="32.6211" rx="2.5" ry="2.5" style="stroke:#181818;stroke-width:0.5;" width="56" x="116" y="421.5313"/><text fill="#000000" font-family="sans-serif" font-size="14" lengthAdjust="spacing" textLength="42" x="123" y="443.6387">Server</text><polygon fill="#181818" points="127,65.9121,137,69.9121,127,73.9121,131,69.9121" style="stroke:#181818;stroke-width:1.0;"/><line style="stroke:#181818;stroke-width:1.0;" x1="35" x2="133" y1="69.9121" y2="69.9121"/><text fill="#000000" font-family="sans-serif" font-size="13" lengthAdjust="spacing" textLength="59" x="42" y="64.6494">GET /data</text><line style="stroke:#181818;stroke-width:1.0;" x1="149" x2="191" y1="101.2031" y2="101.2031"/><line style="stroke:#181818;stroke-width:1.0;" x1="191" x2="191" y1="101.2031" y2="114.2031"/><line style="stroke:#181818;stroke-width:1.0;" x1="150" x2="191" y1="114.2031" y2="114.2031"/><polygon fill="#181818" points="160,110.2031,150,114.2031,160,118.2031,156,114.2031" style="stroke:#181818;stroke-width:1.0;"/><text fill="#000000" font-family="sans-serif" font-size="13" lengthAdjust="spacing" textLength="94" x="156" y="95.9404">Get current data</text><polygon fill="#181818" points="46,141.4941,36,145.4941,46,149.4941,42,145.4941" style="stroke:#181818;stroke-width:1.0;"/><line style="stroke:#181818;stroke-width:1.0;stroke-dasharray:2.0,2.0;" x1="40" x2="138" y1="145.4941" y2="145.4941"/><text fill="#000000" font-family="sans-serif" font-size="13" lengthAdjust="spacing" textLength="80" x="52" y="140.2314">Return Data 1</text><polygon fill="#181818" points="127,172.7852,137,176.7852,127,180.7852,131,176.7852" style="stroke:#181818;stroke-width:1.0;"/><line style="stroke:#181818;stroke-width:1.0;" x1="35" x2="133" y1="176.7852" y2="176.7852"/><text fill="#000000" font-family="sans-serif" font-size="13" lengthAdjust="spacing" textLength="59" x="42" y="171.5225">GET /data</text><line style="stroke:#181818;stroke-width:1.0;" x1="149" x2="191" y1="208.0762" y2="208.0762"/><line style="stroke:#181818;stroke-width:1.0;" x1="191" x2="191" y1="208.0762" y2="221.0762"/><line style="stroke:#181818;stroke-width:1.0;" x1="150" x2="191" y1="221.0762" y2="221.0762"/><polygon fill="#181818" points="160,217.0762,150,221.0762,160,225.0762,156,221.0762" style="stroke:#181818;stroke-width:1.0;"/><text fill="#000000" font-family="sans-serif" font-size="13" lengthAdjust="spacing" textLength="90" x="156" y="202.8135">Wait for Update</text><line style="stroke:#181818;stroke-width:2.0;" x1="42" x2="52" y1="247.3672" y2="257.3672"/><line style="stroke:#181818;stroke-width:2.0;" x1="42" x2="52" y1="257.3672" y2="247.3672"/><line style="stroke:#181818;stroke-width:1.0;stroke-dasharray:2.0,2.0;" x1="47" x2="138" y1="252.3672" y2="252.3672"/><text fill="#000000" font-family="sans-serif" font-size="13" lengthAdjust="spacing" textLength="46" x="52" y="247.1045">Timeout</text><polygon fill="#181818" points="127,279.6582,137,283.6582,127,287.6582,131,283.6582" style="stroke:#181818;stroke-width:1.0;"/><line style="stroke:#181818;stroke-width:1.0;" x1="35" x2="133" y1="283.6582" y2="283.6582"/><text fill="#000000" font-family="sans-serif" font-size="13" lengthAdjust="spacing" textLength="59" x="42" y="278.3955">GET /data</text><line style="stroke:#181818;stroke-width:1.0;" x1="149" x2="191" y1="314.9492" y2="314.9492"/><line style="stroke:#181818;stroke-width:1.0;" x1="191" x2="191" y1="314.9492" y2="327.9492"/><line style="stroke:#181818;stroke-width:1.0;" x1="150" x2="191" y1="327.9492" y2="327.9492"/><polygon fill="#181818" points="160,323.9492,150,327.9492,160,331.9492,156,327.9492" style="stroke:#181818;stroke-width:1.0;"/><text fill="#000000" font-family="sans-serif" font-size="13" lengthAdjust="spacing" textLength="90" x="156" y="309.6865">Wait for Update</text><line style="stroke:#181818;stroke-width:1.0;" x1="149" x2="191" y1="359.2402" y2="359.2402"/><line style="stroke:#181818;stroke-width:1.0;" x1="191" x2="191" y1="359.2402" y2="372.2402"/><line style="stroke:#181818;stroke-width:1.0;" x1="150" x2="191" y1="372.2402" y2="372.2402"/><polygon fill="#181818" points="160,368.2402,150,372.2402,160,376.2402,156,372.2402" style="stroke:#181818;stroke-width:1.0;"/><text fill="#000000" font-family="sans-serif" font-size="13" lengthAdjust="spacing" textLength="72" x="156" y="353.9775">Update Data</text><polygon fill="#181818" points="46,399.5313,36,403.5313,46,407.5313,42,403.5313" style="stroke:#181818;stroke-width:1.0;"/><line style="stroke:#181818;stroke-width:1.0;stroke-dasharray:2.0,2.0;" x1="40" x2="138" y1="403.5313" y2="403.5313"/><text fill="#000000" font-family="sans-serif" font-size="13" lengthAdjust="spacing" textLength="80" x="52" y="398.2686">Return Data 2</text><!--SRC=[jP2z2i9048JxUuhn0KHYcS96nLuZrajkbGFpmxeNnE2xU-RGg0Gin6fXvvlPOKUrqA4WA5SNg7WsXd9r3IbZVdHSgZ5nOZp3XgLXIR5QPfXOKkhXA9autbXMv5xa7j5P7aXWOdAADQkN4eiW8p6MFrD_hB0ZfzXNWcqT7DmtE3yRPAxWoklGxVQa99fSyPyIFH65xWkcvTA6arz-DHtg-xAAdXi0]--></g></svg>