<?xml version="1.0" encoding="us-ascii" standalone="no"?><svg xmlns="http://www.w3.org/2000/svg" xmlns:xlink="http://www.w3.org/1999/xlink" contentStyleType="text/css" height="234px" preserveAspectRatio="none" style="width:235px;height:234px;background:#FFFFFF;" version="1.1" viewBox="0 0 235 234" width="235px" zoomAndPan="magnify"><defs/><g><rect fill="#FFFFFF" height="130.1641" style="stroke:#181818;stroke-width:1.0;" width="10" x="25" y="48.6211"/><rect fill="#FFFFFF" height="106.873" style="stroke:#181818;stroke-width:1.0;" width="10" x="139" y="71.9121"/><line style="stroke:#181818;stroke-width:0.5;stroke-dasharray:5.0,5.0;" x1="30" x2="30" y1="38.6211" y2="196.7852"/><line style="stroke:#181818;stroke-width:0.5;stroke-dasharray:5.0,5.0;" x1="144" x2="144" y1="38.6211" y2="196.7852"/><rect fill="#E2E2F0" height="32.6211" rx="2.5" ry="2.5" style="stroke:#181818;stroke-width:0.5;" width="50" x="5" y="5"/><text fill="#000000" font-family="sans-serif" font-size="14" lengthAdjust="spacing" textLength="36" x="12" y="27.1074">Client</text><rect fill="#E2E2F0" height="32.6211" rx="2.5" ry="2.5" style="stroke:#181818;stroke-width:0.5;" width="50" x="5" y="195.7852"/><text fill="#000000" font-family="sans-serif" font-size="14" lengthAdjust="spacing" textLength="36" x="12" y="217.8926">Client</text><rect fill="#E2E2F0" height="32.6211" rx="2.5" ry="2.5" style="stroke:#181818;stroke-width:0.5;" width="56" x="116" y="5"/><text fill="#000000" font-family="sans-serif" font-size="14" lengthAdjust="spacing" textLength="42" x="123" y="27.1074">Server</text><rect fill="#E2E2F0" height="32.6211" rx="2.5" ry="2.5" style="stroke:#181818;stroke-width:0.5;" width="56" x="116" y="195.7852"/><text fill="#000000" font-family="sans-serif" font-size="14" lengthAdjust="spacing" textLength="42" x="123" y="217.8926">Server</text><rect fill="#FFFFFF" height="130.1641" style="stroke:#181818;stroke-width:1.0;" width="10" x="25" y="48.6211"/><rect fill="#FFFFFF" height="106.873" style="stroke:#181818;stroke-width:1.0;" width="10" x="139" y="71.9121"/><polygon fill="#181818" points="127,67.9121,137,71.9121,127,75.9121,131,71.9121" style="stroke:#181818;stroke-width:1.0;"/><line style="stroke:#181818;stroke-width:1.0;" x1="35" x2="133" y1="71.9121" y2="71.9121"/><text fill="#000000" font-family="sans-serif" font-size="13" lengthAdjust="spacing" textLength="59" x="42" y="66.6494">GET /data</text><polygon fill="#181818" points="46,99.2031,36,103.2031,46,107.2031,42,103.2031" style="stroke:#181818;stroke-width:1.0;"/><line style="stroke:#181818;stroke-width:1.0;stroke-dasharray:2.0,2.0;" x1="40" x2="138" y1="103.2031" y2="103.2031"/><text fill="#000000" font-family="sans-serif" font-size="13" lengthAdjust="spacing" textLength="80" x="52" y="97.9404">Return Data 1</text><line style="stroke:#181818;stroke-width:1.0;" x1="149" x2="191" y1="134.4941" y2="134.4941"/><line style="stroke:#181818;stroke-width:1.0;" x1="191" x2="191" y1="134.4941" y2="147.4941"/><line style="stroke:#181818;stroke-width:1.0;" x1="150" x2="191" y1="147.4941" y2="147.4941"/><polygon fill="#181818" points="160,143.4941,150,147.4941,160,151.4941,156,147.4941" style="stroke:#181818;stroke-width:1.0;"/><text fill="#000000" font-family="sans-serif" font-size="13" lengthAdjust="spacing" textLength="72" x="156" y="129.2314">Update Data</text><polygon fill="#181818" points="41,174.7852,31,178.7852,41,182.7852,37,178.7852" style="stroke:#181818;stroke-width:1.0;"/><line style="stroke:#181818;stroke-width:1.0;stroke-dasharray:2.0,2.0;" x1="35" x2="143" y1="178.7852" y2="178.7852"/><text fill="#000000" font-family="sans-serif" font-size="13" lengthAdjust="spacing" textLength="80" x="47" y="173.5225">Return Data 2</text><!--SRC=[IqmkoInBB4bLSCx9JCqhuUA2q0gwTWh1gKLbgKLM2kwk8GhwAOabYLo9CCKGAIu8fQ0BL0pHPgKGb5fIMfIdu09Khc08Lu0mBBGW1MG0I9wGTYEkb5Hq6v6587e0]--></g></svg>