<?xml version="1.0" encoding="us-ascii" standalone="no"?><svg xmlns="http://www.w3.org/2000/svg" xmlns:xlink="http://www.w3.org/1999/xlink" contentStyleType="text/css" height="372px" preserveAspectRatio="none" style="width:247px;height:372px;background:#FFFFFF;" version="1.1" viewBox="0 0 247 372" width="247px" zoomAndPan="magnify"><defs/><g><rect fill="#FFFFFF" height="268.3281" style="stroke:#181818;stroke-width:1.0;" width="10" x="25" y="48.6211"/><rect fill="#FFFFFF" height="245.0371" style="stroke:#181818;stroke-width:1.0;" width="10" x="151" y="71.9121"/><line style="stroke:#181818;stroke-width:0.5;stroke-dasharray:5.0,5.0;" x1="30" x2="30" y1="38.6211" y2="334.9492"/><line style="stroke:#181818;stroke-width:0.5;stroke-dasharray:5.0,5.0;" x1="156" x2="156" y1="38.6211" y2="334.9492"/><rect fill="#E2E2F0" height="32.6211" rx="2.5" ry="2.5" style="stroke:#181818;stroke-width:0.5;" width="50" x="5" y="5"/><text fill="#000000" font-family="sans-serif" font-size="14" lengthAdjust="spacing" textLength="36" x="12" y="27.1074">Client</text><rect fill="#E2E2F0" height="32.6211" rx="2.5" ry="2.5" style="stroke:#181818;stroke-width:0.5;" width="50" x="5" y="333.9492"/><text fill="#000000" font-family="sans-serif" font-size="14" lengthAdjust="spacing" textLength="36" x="12" y="356.0566">Client</text><rect fill="#E2E2F0" height="32.6211" rx="2.5" ry="2.5" style="stroke:#181818;stroke-width:0.5;" width="56" x="128" y="5"/><text fill="#000000" font-family="sans-serif" font-size="14" lengthAdjust="spacing" textLength="42" x="135" y="27.1074">Server</text><rect fill="#E2E2F0" height="32.6211" rx="2.5" ry="2.5" style="stroke:#181818;stroke-width:0.5;" width="56" x="128" y="333.9492"/><text fill="#000000" font-family="sans-serif" font-size="14" lengthAdjust="spacing" textLength="42" x="135" y="356.0566">Server</text><rect fill="#FFFFFF" height="268.3281" style="stroke:#181818;stroke-width:1.0;" width="10" x="25" y="48.6211"/><rect fill="#FFFFFF" height="245.0371" style="stroke:#181818;stroke-width:1.0;" width="10" x="151" y="71.9121"/><polygon fill="#181818" points="139,67.9121,149,71.9121,139,75.9121,143,71.9121" style="stroke:#181818;stroke-width:1.0;"/><line style="stroke:#181818;stroke-width:1.0;" x1="35" x2="145" y1="71.9121" y2="71.9121"/><text fill="#000000" font-family="sans-serif" font-size="13" lengthAdjust="spacing" textLength="97" x="42" y="66.6494">UPGRADE /data</text><polygon fill="#181818" points="46,99.2031,36,103.2031,46,107.2031,42,103.2031" style="stroke:#181818;stroke-width:1.0;"/><line style="stroke:#181818;stroke-width:1.0;stroke-dasharray:2.0,2.0;" x1="40" x2="150" y1="103.2031" y2="103.2031"/><text fill="#000000" font-family="sans-serif" font-size="13" lengthAdjust="spacing" textLength="19" x="52" y="97.9404">OK</text><polygon fill="#181818" points="46,130.4941,36,134.4941,46,138.4941,42,134.4941" style="stroke:#181818;stroke-width:1.0;"/><line style="stroke:#181818;stroke-width:1.0;stroke-dasharray:2.0,2.0;" x1="40" x2="150" y1="134.4941" y2="134.4941"/><text fill="#000000" font-family="sans-serif" font-size="13" lengthAdjust="spacing" textLength="80" x="52" y="129.2314">Return Data 1</text><line style="stroke:#181818;stroke-width:1.0;" x1="161" x2="203" y1="165.7852" y2="165.7852"/><line style="stroke:#181818;stroke-width:1.0;" x1="203" x2="203" y1="165.7852" y2="178.7852"/><line style="stroke:#181818;stroke-width:1.0;" x1="162" x2="203" y1="178.7852" y2="178.7852"/><polygon fill="#181818" points="172,174.7852,162,178.7852,172,182.7852,168,178.7852" style="stroke:#181818;stroke-width:1.0;"/><text fill="#000000" font-family="sans-serif" font-size="13" lengthAdjust="spacing" textLength="72" x="168" y="160.5225">Update Data</text><polygon fill="#181818" points="46,206.0762,36,210.0762,46,214.0762,42,210.0762" style="stroke:#181818;stroke-width:1.0;"/><line style="stroke:#181818;stroke-width:1.0;stroke-dasharray:2.0,2.0;" x1="40" x2="150" y1="210.0762" y2="210.0762"/><text fill="#000000" font-family="sans-serif" font-size="13" lengthAdjust="spacing" textLength="80" x="52" y="204.8135">Return Data 2</text><polygon fill="#181818" points="139,237.3672,149,241.3672,139,245.3672,143,241.3672" style="stroke:#181818;stroke-width:1.0;"/><line style="stroke:#181818;stroke-width:1.0;" x1="35" x2="145" y1="241.3672" y2="241.3672"/><text fill="#000000" font-family="sans-serif" font-size="13" lengthAdjust="spacing" textLength="91" x="42" y="236.1045">Request update</text><line style="stroke:#181818;stroke-width:1.0;" x1="161" x2="203" y1="272.6582" y2="272.6582"/><line style="stroke:#181818;stroke-width:1.0;" x1="203" x2="203" y1="272.6582" y2="285.6582"/><line style="stroke:#181818;stroke-width:1.0;" x1="162" x2="203" y1="285.6582" y2="285.6582"/><polygon fill="#181818" points="172,281.6582,162,285.6582,172,289.6582,168,285.6582" style="stroke:#181818;stroke-width:1.0;"/><text fill="#000000" font-family="sans-serif" font-size="13" lengthAdjust="spacing" textLength="72" x="168" y="267.3955">Update Data</text><polygon fill="#181818" points="41,312.9492,31,316.9492,41,320.9492,37,316.9492" style="stroke:#181818;stroke-width:1.0;"/><line style="stroke:#181818;stroke-width:1.0;stroke-dasharray:2.0,2.0;" x1="35" x2="155" y1="316.9492" y2="316.9492"/><text fill="#000000" font-family="sans-serif" font-size="13" lengthAdjust="spacing" textLength="80" x="47" y="311.6865">Return Data 3</text><!--SRC=[IqmkoInBB4bLSCx9JCqhuUA2q0gwTWh1gKLbgKLM2g41xa6EBguA-Yc99ObSYJ0D46ak2AMW2zG0qMgbuE-DJJGejQIqA4_11MY8WY5S0P8r1IaWOq7oXBGRON5bK6fXQMfnYK8fs1ZAp3VcIab5zoUo44GF0000]--></g></svg>